<?xml version="1.0" encoding="UTF-8" standalone="no"?><!DOCTYPE svg PUBLIC "-//W3C//DTD SVG 1.1//EN" "http://www.w3.org/Graphics/SVG/1.1/DTD/svg11.dtd"><svg width="100%" height="100%" viewBox="0 0 267 267" version="1.1" xmlns="http://www.w3.org/2000/svg" xmlns:xlink="http://www.w3.org/1999/xlink" xml:space="preserve" xmlns:serif="http://www.serif.com/" style="fill-rule:evenodd;clip-rule:evenodd;stroke-linejoin:round;stroke-miterlimit:2;"><path d="M266.667,58.333l0,150c0,32.195 -26.138,58.333 -58.333,58.333l-150,0c-32.195,0 -58.333,-26.138 -58.333,-58.333l0,-150c0,-32.195 26.138,-58.333 58.333,-58.333l150,0c32.195,0 58.333,26.138 58.333,58.333Z" style="fill:#0f172a;"/><path d="M50.689,229.175l-18.389,-206.259l202.068,-0l-18.409,206.226l-82.748,22.941l-82.521,-22.908Z" style="fill:#005e61;fill-rule:nonzero;"/><path d="M200.198,216.011l15.732,-176.23l-82.597,-0l0,194.767l66.865,-18.537Z" style="fill:#3fa5a8;fill-rule:nonzero;"/><g transform="matrix(0,1,-1,0,370.187861,-432.229266)"><g transform="matrix(162.693732,0,0,162.693732,635.487538,294.773496)"></g><text x="574.965px" y="294.773px" style="font-family:'DINCondensed-Bold', 'DIN Condensed';font-weight:700;font-stretch:condensed;font-size:162.694px;fill:#a89bd7;">3</text></g><g transform="matrix(0,1,-1,0,347.177044,-517.551783)"><g transform="matrix(162.693732,0,0,162.693732,636.382354,240.60683)"></g><text x="606.121px" y="240.607px" style="font-family:'DINCondensed-Bold', 'DIN Condensed';font-weight:700;font-stretch:condensed;font-size:162.694px;fill:#a89bd7;">:</text></g></svg>